<?xml version="1.0" encoding="UTF-8"?>
<svg width="1204px" height="468px" viewBox="0 0 1204 468" version="1.1" xmlns="http://www.w3.org/2000/svg" xmlns:xlink="http://www.w3.org/1999/xlink">
    <!-- Generator: Sketch 63.1 (92452) - https://sketch.com -->
    <title>Group 2</title>
    <desc>Created with Sketch.</desc>
    <defs>
        <path d="M220,374.08 C241.533333,374.08 261.673333,369.836667 280.42,361.35 C299.166667,352.863333 315,340.893333 327.92,325.44 L327.92,325.44 L302.46,300.74 C279.153333,327.34 251.666667,340.64 220,340.64 C189.853333,340.64 164.646667,330.506667 144.38,310.24 C124.366667,290.226667 114.36,264.133333 114.36,231.96 C114.36,199.786667 124.366667,173.693333 144.38,153.68 C164.646667,133.413333 189.853333,123.28 220,123.28 C250.4,123.28 275.353333,135.06 294.86,158.62 L294.86,158.62 L319.94,134.3 C294.353333,104.66 261.04,89.84 220,89.84 C179.466667,89.84 145.773333,103.52 118.92,130.88 C92.0666667,157.733333 78.64,191.426667 78.64,231.96 C78.64,272.493333 92.0666667,306.313333 118.92,333.42 C146.026667,360.526667 179.72,374.08 220,374.08 Z M493.22,374.08 C514.753333,374.08 534.893333,369.836667 553.64,361.35 C572.386667,352.863333 588.22,340.893333 601.14,325.44 L601.14,325.44 L575.68,300.74 C552.373333,327.34 524.886667,340.64 493.22,340.64 C463.073333,340.64 437.866667,330.506667 417.6,310.24 C397.586667,290.226667 387.58,264.133333 387.58,231.96 C387.58,199.786667 397.586667,173.693333 417.6,153.68 C437.866667,133.413333 463.073333,123.28 493.22,123.28 C523.62,123.28 548.573333,135.06 568.08,158.62 L568.08,158.62 L593.16,134.3 C567.573333,104.66 534.26,89.84 493.22,89.84 C452.686667,89.84 418.993333,103.52 392.14,130.88 C365.286667,157.733333 351.86,191.426667 351.86,231.96 C351.86,272.493333 365.286667,306.313333 392.14,333.42 C419.246667,360.526667 452.94,374.08 493.22,374.08 Z M677.14,368 L677.14,206.5 L675.62,160.9 L677.14,160.9 L762.26,310.24 L782.78,310.24 L867.9,160.9 L869.42,160.9 L867.9,206.5 L867.9,368 L902.86,368 L902.86,95.92 L867.9,95.92 L773.28,261.6 L771.76,261.6 L677.14,95.92 L642.18,95.92 L642.18,368 L677.14,368 Z M1050.3,368 L1050.3,129.36 L1126.3,129.36 L1126.3,95.92 L939.34,95.92 L939.34,129.36 L1015.34,129.36 L1015.34,368 L1050.3,368 Z" id="path-1"></path>
    </defs>
    <g id="Page-1" stroke="none" stroke-width="1" fill="none" fill-rule="evenodd">
        <g id="Group-2">
            <g id="CCMT" fill-rule="nonzero">
                <use fill="#4E4D4D" xlink:href="#path-1"></use>
                <use fill="#FCFBFB" xlink:href="#path-1"></use>
            </g>
            <rect id="Rectangle" stroke="#FFFFFF" stroke-width="21" x="10.5" y="10.5" width="1183" height="447" rx="114"></rect>
        </g>
    </g>
</svg>